<?xml version="1.0" encoding="UTF-8"?>
<svg width="362px" height="281px" viewBox="0 0 362 281" version="1.1" xmlns="http://www.w3.org/2000/svg" xmlns:xlink="http://www.w3.org/1999/xlink">
    <!-- Generator: Sketch 46.2 (44496) - http://www.bohemiancoding.com/sketch -->
    <title>Slice 1</title>
    <desc>Created with Sketch.</desc>
    <defs></defs>
    <g id="Page-1" stroke="none" stroke-width="1" fill="none" fill-rule="evenodd">
        <g id="Group-2" fill-rule="nonzero" fill="#0078D6">
            <path d="M80,28.8866895 L162.566438,17.5540411 L162.566438,97.345137 L80,97.345137 M172.511416,15.981347 L281.906164,0 L281.906164,96.6744292 L172.511416,96.6744292 M80,105.786804 L162.566438,105.786804 L162.566438,185.809178 L80,174.245251 M172.511416,106.850685 L281.906164,106.850685 L281.906164,202.6 L172.511416,187.104338" id="Shape"></path>
            <g id="Group" transform="translate(0.000000, 223.000000)">
                <path d="M0,3 C2.25,3.01 4.5,3.01 6.76,3.04 C10.27,15.72 13.73,28.42 17.25,41.11 C18,43.77 18.56,46.49 18.89,49.25 C22.55,33.68 27.55,18.44 31.75,3 C33.7,3.01 35.65,3.01 37.6,3.02 C40.69,14.01 43.58,25.05 46.64,36.05 C47.77,40.43 49.23,44.75 49.69,49.28 C53,33.73 57.72,18.49 61.47,3.04 C63.69,3.01 65.91,3.01 68.13,3.01 C63.29,20.7 58.25,38.34 53.35,56.01 L46.14,56.01 C42.59,43.32 39.07,30.62 35.48,17.95 C34.88,15.9 34.63,13.78 34.44,11.66 C34.16,13.49 33.9,15.34 33.43,17.13 C29.8,30.05 26.12,42.95 22.59,55.89 C20.19,56.02 17.79,56.03 15.39,56.01 C10.24,38.35 5.13,20.67 0,3" id="Shape"></path>
                <path d="M72,3.50011546 C72.2639844,1.40480437 74.1113886,-0.124285349 76.2191186,0.00796641835 C78.3268486,0.140218186 79.968627,1.88824039 79.968627,4.00011546 C79.968627,6.11199052 78.3268486,7.86001272 76.2191186,7.99226449 C74.1113886,8.12451626 72.2639844,6.59542654 72,4.50011546 M72.9,18.0801155 L78.9,18.0801155 L78.9,56.0801155 L72.9,56.0801155" id="Shape"></path>
                <path d="M94.93,24.1951934 C98.36,18.0851934 106.36,15.2751934 112.81,18.1051934 C117.94,20.1051934 119.85,26.0451934 120.01,31.1051934 C120.29,39.4251934 120.06,47.7551934 120.13,56.0751934 C118.13,56.0751934 116.13,56.0751934 114.13,56.0651934 C114.04,48.0751934 114.34,40.0651934 113.99,32.0751934 C113.83,28.1151934 112.15,23.3551934 107.84,22.3451934 C101.55,20.4451934 95.27,26.1151934 95.07,32.3351934 C94.89,40.2451934 95.06,48.1651934 95,56.0751934 L89,56.0751934 C89.01,43.4051934 89.01,30.7451934 89,18.0751934 L95.01,18.0751934 C95,20.1151934 94.99,22.1551934 94.93,24.1951934" id="Shape"></path>
                <path d="M156.627121,0.01 C158.627121,0 160.627121,0 162.627121,0 L162.627121,56 L156.647121,56 C156.657121,53.97 156.617121,51.94 156.477121,49.91 C152.147121,57.69 140.567121,59.41 133.947121,53.64 C129.217121,49.57 127.777121,42.95 128.027121,36.96 C128.077121,30.88 130.077121,24.42 134.917121,20.45 C141.207121,15.27 152.357121,15.57 156.667121,23.18 C156.587121,15.45 156.657121,7.73 156.627121,0.01 M143.707121,22.15 C138.907121,22.91 135.657121,27.29 134.757121,31.82 C133.577121,37.28 133.787121,43.6 137.227121,48.24 C140.947121,53.18 149.157121,53.29 153.137121,48.62 C155.847121,45.8 156.617121,41.76 156.637121,37.98 C156.667121,33.99 157.007121,29.49 154.357121,26.16 C152.017121,22.83 147.647121,21.33 143.707121,22.15" id="Shape"></path>
                <path d="M186.025112,17.1179685 C191.375112,16.6479685 197.305112,17.4879685 201.325112,21.3579685 C205.865112,25.5479685 207.215112,32.0579685 206.965112,38.0079685 C206.895112,43.3579685 204.915112,48.7879685 200.995112,52.5179685 C192.815112,59.9579685 177.625112,58.3279685 172.435112,48.0979685 C168.355112,39.5279685 169.175112,27.6679685 176.625112,21.1579685 C179.295112,18.8979685 182.675112,17.8679685 186.025112,17.1179685 M184.945112,22.5579685 C176.135112,25.2679685 174.645112,36.7779685 177.395112,44.3479685 C179.585112,51.0679685 188.125112,54.0479685 194.255112,50.9079685 C198.405112,48.9979685 200.295112,44.3179685 200.695112,40.0279685 C201.145112,35.0179685 200.745112,29.3379685 197.205112,25.4279685 C194.205112,22.0479685 189.125112,21.3179685 184.945112,22.5579685" id="Shape"></path>
                <path d="M209,18.03 L215.26,18.03 C217.74,27.08 220.14,36.15 222.67,45.19 C223.18,46.89 223.37,48.65 223.55,50.41 C226.38,39.51 229.96,28.81 233.17,18.02 L238.64,18.05 C241.39,28.85 244.81,39.49 247.09,50.4 C249.44,39.55 252.78,28.94 255.39,18.15 C257.4,18.05 259.41,18.02 261.43,18 C257.62,30.67 253.97,43.38 250.14,56.03 L243.92,56.03 C241.22,45.73 237.72,35.63 235.53,25.22 C232.92,35.62 229.3,45.74 226.32,56.03 L220.31,56.03 C216.55,43.36 212.71,30.72 209,18.03" id="Shape"></path>
                <path d="M276.77,17.0784172 C280.52,16.8184172 284.34,17.1784172 287.87,18.5584172 C288.85,20.4184172 288.09,22.8584172 288.32,24.9484172 C284.11,22.3184172 278.31,20.6384172 273.74,23.3184172 C270.61,25.0184172 270.46,30.0484172 273.51,31.9184172 C277.88,34.7484172 283.43,35.4884172 287.31,39.1284172 C291.59,43.2484172 290.55,51.1684172 285.54,54.2584172 C279.45,58.1384172 271.43,57.7584172 265.05,54.7984172 C265.05,52.5584172 265.04,50.3184172 265,48.0784172 C269.54,51.5384172 275.92,53.4584172 281.35,50.9984172 C284.52,49.4084172 284.68,44.5384172 281.89,42.4884172 C277.52,39.2684172 271.53,38.7584172 267.65,34.7384172 C263.82,30.8784172 264.51,23.7784172 268.78,20.5084172 C270.99,18.4784172 273.98,17.8684172 276.77,17.0784172" id="Shape"></path>
                <path d="M318,1.29 C318.53,1.22 319.59,1.07 320.11,1 C320.14,19.04 320.12,37.09 320.12,55.14 L314.2,55.14 C314.24,40.12 314.1,25.09 314.27,10.07 C310.5,12.68 306.43,14.91 302,16.15 C302.03,14.15 302.05,12.15 302.07,10.15 C307.87,8.18 313.15,5 318,1.29" id="Shape"></path>
                <path d="M342.172369,2.20591547 C347.372369,1.33591547 353.142369,3.23591547 356.232369,7.65591547 C360.622369,13.8559155 361.032369,21.8059155 361.252369,29.1359155 C361.102369,36.8759155 360.252369,45.2659155 355.312369,51.5759155 C350.762369,57.5459155 341.442369,58.9459155 335.342369,54.5559155 C330.392369,50.9859155 328.452369,44.7559155 327.572369,38.9859155 C326.572369,30.4159155 326.662369,21.4259155 329.642369,13.2459155 C331.522369,7.69591547 336.162369,2.91591547 342.172369,2.20591547 M341.252369,7.57591547 C335.922369,9.73591547 334.392369,16.0359155 333.652369,21.1559155 C332.872369,28.2959155 332.692369,35.6559155 334.392369,42.6859155 C335.242369,46.1459155 337.032369,49.8159155 340.462369,51.3359155 C344.352369,53.2959155 349.552369,51.6059155 351.602369,47.7659155 C354.872369,42.1159155 354.952369,35.3359155 354.992369,28.9859155 C354.862369,22.7959155 354.612369,16.1359155 351.192369,10.7559155 C349.162369,7.47591547 344.792369,6.15591547 341.252369,7.57591547" id="Shape"></path>
            </g>
        </g>
    </g>
</svg>